/* XPM */
static char *pause[]={
"20 20 34 1",
"F c None",
"k c #000000",
"s c #0a0a0a",
"o c #141414",
"w c #1d1d1d",
"l c #1f1f1f",
"t c #272727",
"j c #3e3e3e",
"n c #434343",
"r c #464646",
"v c #4a4a4a",
"A c #a4a4a4",
"E c #ababab",
"B c #aeaeae",
"z c #bababa",
"D c #bbbbbb",
"p c #bcbcbc",
"x c #bfbfbf",
"b c #d3d3d3",
"f c #d6d6d6",
"c c #d8d8d8",
"a c #dcdcdc",
"u c #dddddd",
"e c #dedede",
"i c #e8e8e8",
"q c #e9e9e9",
"m c #f0f0f0",
"g c #f2f2f2",
"y c #f7f7f7",
"d c #f8f8f8",
"C c #f9f9f9",
"# c #fbfbfb",
"h c #fefefe",
". c #ffffff",
"....................",
"....................",
"....................",
".....#abcd#ebfgh....",
".....ijklamnkoph....",
".....ijklamnkoph....",
".....ijklamnkoph....",
".....ijklamnkoph....",
".....ijklamnkoph....",
".....ijklamnkoph....",
".....ijklamnkoph....",
".....ijklamnkoph....",
".....ijklamnkoph....",
".....ijklamnkoph....",
".....qrstumvswxh....",
".....yzABgCDAEFh....",
"....................",
"....................",
"....................",
"...................."};
