/* XPM */
static char *play[]={
"20 20 59 1",
"j c #000000",
"u c #010101",
"C c #020202",
"p c #040404",
"z c #050505",
"k c #070707",
"S c #0e0e0e",
"D c #0f0f0f",
"v c #101010",
"W c #111111",
"L c #171717",
"H c #1c1c1c",
"l c #212121",
"f c #222222",
"i c #242424",
"e c #252525",
"q c #262626",
"0 c #2c2c2c",
"P c #2f2f2f",
"A c #3f3f3f",
"E c #404040",
"T c #434343",
"X c #444444",
"1 c #505050",
"w c #606060",
"I c #696969",
"r c #6e6e6e",
"M c #727272",
"m c #7d7d7d",
"g c #838383",
"Q c #8e8e8e",
"U c #9a9a9a",
"B c #a3a3a3",
"Y c #a8a8a8",
"2 c #afafaf",
"F c #b0b0b0",
"c c #bbbbbb",
"x c #c3c3c3",
"s c #c4c4c4",
"J c #c7c7c7",
"n c #cacaca",
"N c #cecece",
"h c #d6d6d6",
"V c #e0e0e0",
"4 c #e1e1e1",
"Z c #e5e5e5",
"R c #e8e8e8",
"3 c #efefef",
"d c #f0f0f0",
"t c #f1f1f1",
"o c #f5f5f5",
"G c #f7f7f7",
"y c #f9f9f9",
"K c #fafafa",
"O c #fbfbfb",
"b c #fcfcfc",
"a c #fdfdfd",
"# c #fefefe",
". c #ffffff",
"....................",
"....................",
"..##a###............",
"..#bcdb#............",
"..#befgh............",
"..##ijklmno###......",
"..##ijjjpqrstb#.....",
"..##ijjjjjuvwxya....",
"..##ijjjjjjjjzABdba.",
"..##ijjjjjjjjjCDEFG.",
"..##ijjjjjjjjjzHIJK.",
"..##ijjjjjjjuLMNO#..",
"..##ijjjjjzPQRb#....",
"..##ijjjSTUVKa#.....",
"..##iCWXYZb#........",
"..#a0123##..........",
"..#O4K#.............",
"..#####.............",
"....................",
"...................."};
