/* XPM */
static char *print[]={
"20 20 136 2",
"#5 c #363636",
"#7 c #414141",
"#m c #4a4a4a",
".y c #4b4b4b",
"#6 c #525252",
"ab c #565656",
"#Q c #575757",
"#f c #595959",
".A c #5b5b5b",
"#Z c #5c5c5c",
"#P c #5d5d5d",
".H c #5e5e5e",
"aa c #5f5f5f",
"#9 c #616161",
".x c #626262",
".S c #636363",
"#3 c #646464",
"#v c #676767",
"#l c #686868",
"#I c #696969",
"#Y c #6a6a6a",
".6 c #6b6b6b",
".n c #6d6d6d",
"#1 c #6e6e6e",
".v c #6f6f6f",
".G c #707070",
"#y c #717171",
"#N c #737373",
"#u c #757575",
".8 c #767676",
".R c #787878",
".l c #797979",
"#G c #7a7a7a",
"#J c #7b7b7b",
"a. c #7c7c7c",
".P c #7e7e7e",
".z c #808080",
".m c #828282",
"#H c #838383",
"#z c #848484",
".W c #858585",
"#O c #878787",
".M c #888888",
".X c #8b8b8b",
".E c #8c8c8c",
"#w c #8d8d8d",
"#e c #8e8e8e",
"#t c #8f8f8f",
"#d c #909090",
"#2 c #919191",
".K c #929292",
"#F c #939393",
"#s c #949494",
"#h c #959595",
".Q c #969696",
"ad c #979797",
"#r c #989898",
"#K c #999999",
".5 c #9a9a9a",
"#E c #9b9b9b",
".V c #9c9c9c",
"#M c #9d9d9d",
".t c #9e9e9e",
".J c #9f9f9f",
".O c #a0a0a0",
"#X c #a1a1a1",
".B c #a2a2a2",
"#x c #a3a3a3",
"#D c #a4a4a4",
"#. c #a5a5a5",
".9 c #a6a6a6",
".L c #a7a7a7",
"## c #a8a8a8",
".4 c #a9a9a9",
".f c #aaaaaa",
"#C c #ababab",
".u c #acacac",
".3 c #adadad",
"#o c #aeaeae",
".I c #b0b0b0",
"#L c #b1b1b1",
".U c #b3b3b3",
".w c #b5b5b5",
"#B c #b6b6b6",
".0 c #b7b7b7",
"a# c #b8b8b8",
"#g c #b9b9b9",
".T c #bababa",
"#p c #bbbbbb",
"#A c #bcbcbc",
".1 c #bebebe",
"#S c #bfbfbf",
"#c c #c0c0c0",
"#k c #c2c2c2",
".2 c #c3c3c3",
"ac c #c4c4c4",
"#q c #c5c5c5",
".p c #c6c6c6",
"#a c #c7c7c7",
"#j c #c8c8c8",
"#b c #cacaca",
".e c #cbcbcb",
".D c #cccccc",
".g c #cecece",
"#R c #cfcfcf",
"#i c #d0d0d0",
"#W c #d4d4d4",
".k c #d6d6d6",
".Y c #dadada",
".7 c #dbdbdb",
"#4 c #dcdcdc",
"#V c #dedede",
".F c #dfdfdf",
".N c #e0e0e0",
"ae c #e1e1e1",
"#n c #e2e2e2",
".q c #e3e3e3",
"#0 c #e4e4e4",
"#U c #e5e5e5",
"#T c #e7e7e7",
".o c #e8e8e8",
".i c #eaeaea",
".j c #ebebeb",
".a c #ececec",
".Z c #ededed",
"Qt c #eeeeee",
".# c #efefef",
".s c #f0f0f0",
".r c #f1f1f1",
".C c #f2f2f2",
"af c #f4f4f4",
"#8 c #f7f7f7",
".h c #f8f8f8",
".b c #fafafa",
".c c #fefefe",
".d c #ffffff",
"QtQtQtQt.#.aQtQtQtQtQtQtQtQtQtQtQt.b.c.d",
"QtQtQtQtQtQtQtQtQtQtQtQt.e.f.gQtQtQt.#.h",
"QtQtQtQtQtQtQtQtQt.i.j.k.l.m.n.o.p.p.q.r",
".s.#QtQtQtQtQtQtQt.t.u.v.w.x.y.z.m.A.B.C",
"QtQtQtQtQt.D.E.D.F.G.H.w.I.p.J.K.L.M.NQt",
"QtQtQtQt.O.P.Q.R.S.P.O.I.T.U.V.W.X.YQt.j",
"QtQt.Z.0.z.1.2.w.3.4.4.5.J.J.E.6.7QtQtQt",
"QtQt.q.8.9#.###a.e.e#b#c#d.M#e#f.R#gQtQt",
"QtQt.N#h#i.0.u.f.3#g.T.f.9#j#b#k.E#l#m.0",
"QtQt#n.O#o#p#q#k.u#r#s#r.1.p#k.4#t#u#v#w",
"QtQt.q#x#y#z.V.u#A#B#C#D#E#d#F#G#H#r.5.K",
"QtQt.q#H#I#s#H#J#H#t#K.I#L#M.n#N#L#o#F#O",
"Qt.F#P#Q#R#S.J#O.P.P#J.R.O#C#e#r#L#M#l##",
"#T.X.x#i#U.q#V#W#g#M#e#O#s#.#e.5#X#Y.B.i",
"#j#Z#B#n#U#0#0#U.q.F.2#1#t#K#t#2#3#X.oQt",
".j.0.R.S.I#T.o.q#U#4#s#5#6.m#y#7.B.iQtQt",
"#8QtQtQt.M#9a.a#.paaab.9.k#r.V.0QtQtQtQt",
".r.#QtQt.j#Vacad#K.gae.jQtQtQtQtQtQtQtQt",
".#afQtQtQtQtQtQtQtQtQtQtQtQtQtQtQtQtQtQt",
"QtQtQtQtQtQtQtQtQtQtQtQtQtQtQtQtQtQtQtQt"};
