/* XPM */
static char *rewind[]={
"20 20 74 2",
".B c #000000",
".W c #010101",
".A c #020202",
".Q c #040404",
".w c #050505",
".G c #060606",
".M c #080808",
".6 c #090909",
".q c #0c0c0c",
".T c #0d0d0d",
".N c #0f0f0f",
".r c #101010",
".3 c #141414",
".V c #161616",
"#b c #1b1b1b",
".D c #1e1e1e",
".1 c #232323",
".S c #242424",
"## c #262626",
".g c #2b2b2b",
".z c #333333",
".P c #343434",
".Y c #3d3d3d",
".9 c #3f3f3f",
".x c #414141",
"#c c #454545",
"#d c #474747",
".v c #484848",
".L c #494949",
".l c #4e4e4e",
".J c #555555",
".5 c #5a5a5a",
".U c #5b5b5b",
".p c #676767",
"#a c #696969",
".k c #707070",
".2 c #7b7b7b",
".F c #7e7e7e",
".O c #848484",
".C c #909090",
"#. c #929292",
".f c #959595",
"#f c #a2a2a2",
".R c #a5a5a5",
".0 c #ababab",
".8 c #b1b1b1",
".y c #b7b7b7",
".u c #bfbfbf",
".X c #c2c2c2",
".K c #c5c5c5",
".d c #c6c6c6",
".# c #cbcbcb",
".Z c #cdcdcd",
".H c #d2d2d2",
".s c #d4d4d4",
".h c #d5d5d5",
".I c #d6d6d6",
".o c #d7d7d7",
".j c #dddddd",
"#g c #e5e5e5",
".E c #e8e8e8",
".4 c #e9e9e9",
".e c #ececec",
".a c #ededed",
".m c #f0f0f0",
".7 c #f5f5f5",
"#h c #f6f6f6",
".t c #f7f7f7",
".c c #f8f8f8",
"#e c #fafafa",
".n c #fbfbfb",
".i c #fdfdfd",
".b c #fefefe",
"Qt c #ffffff",
"QtQtQtQtQtQtQtQtQtQtQtQtQtQtQtQtQtQtQtQt",
"QtQtQtQtQtQtQtQtQtQtQtQtQtQtQtQtQtQtQtQt",
"QtQtQtQtQtQtQtQtQtQtQtQtQtQtQtQtQtQtQtQt",
"QtQtQtQtQtQtQtQtQtQtQtQtQtQtQtQtQtQtQtQt",
"QtQtQtQtQtQtQtQt.#.aQtQtQtQt.b.c.d.cQtQt",
"QtQtQtQtQt.b.e.f.g.hQtQt.b.i.j.k.l.mQtQt",
"QtQtQtQt.n.o.p.q.r.sQtQt.t.u.v.w.x.mQtQt",
"QtQt.b.i.y.z.A.B.r.s.i.i.C.D.B.B.x.mQtQt",
"Qt.i.E.F.G.B.B.B.r.H.I.J.B.B.B.B.x.mQtQt",
".b.K.L.M.B.B.B.B.N.O.P.Q.B.B.B.B.x.mQtQt",
".i.R.S.A.B.B.B.B.T.U.V.W.B.B.B.B.x.mQtQt",
"Qt.n.X.Y.A.B.B.B.r.Z.0.1.B.B.B.B.x.mQtQt",
"QtQt.i.c.2.3.B.B.r.s.i.4.5.6.B.B.x.mQtQt",
"QtQtQtQt.7.8.9.Q.r.sQtQt.a#.##.B.x.mQtQt",
"QtQtQtQt.b.n.o#a#b.sQtQt.b.c.u#c#d.mQtQt",
"QtQtQtQtQtQt.b#e#f#gQtQtQtQt.i.4.R#hQtQt",
"QtQtQtQtQtQtQtQtQtQtQtQtQtQtQtQtQtQtQtQt",
"QtQtQtQtQtQtQtQtQtQtQtQtQtQtQtQtQtQtQtQt",
"QtQtQtQtQtQtQtQtQtQtQtQtQtQtQtQtQtQtQtQt",
"QtQtQtQtQtQtQtQtQtQtQtQtQtQtQtQtQtQtQtQt"};
