<?xml version="1.0" encoding="UTF-8" standalone="no"?>
<!-- Created with Inkscape (http://www.inkscape.org/) -->

<svg xmlns:dc="http://purl.org/dc/elements/1.1/" xmlns:cc="http://creativecommons.org/ns#" xmlns:rdf="http://www.w3.org/1999/02/22-rdf-syntax-ns#" xmlns:svg="http://www.w3.org/2000/svg" xmlns="http://www.w3.org/2000/svg" xmlns:sodipodi="http://sodipodi.sourceforge.net/DTD/sodipodi-0.dtd" xmlns:inkscape="http://www.inkscape.org/namespaces/inkscape" version="1.1" width="496.22" height="292.78" id="svg2" inkscape:version="0.47 r22583" sodipodi:docname="FED_inkscape.svg">
  <metadata id="metadata70">
    <rdf:RDF>
      <cc:Work rdf:about="">
        <dc:format>image/svg+xml</dc:format>
        <dc:type rdf:resource="http://purl.org/dc/dcmitype/StillImage" />
        <dc:title></dc:title>
      </cc:Work>
    </rdf:RDF>
  </metadata>
  <sodipodi:namedview pagecolor="#ffffff" bordercolor="#666666" borderopacity="1" objecttolerance="10" gridtolerance="10" guidetolerance="10" inkscape:pageopacity="0" inkscape:pageshadow="2" inkscape:window-width="1083" inkscape:window-height="837" id="namedview68" showgrid="false" showborder="false" inkscape:zoom="0.83456654" inkscape:cx="242.60936" inkscape:cy="141.39076" inkscape:window-x="35" inkscape:window-y="120" inkscape:window-maximized="0" inkscape:current-layer="svg2" />
  <defs id="defs4">
    <inkscape:perspective sodipodi:type="inkscape:persp3d" inkscape:vp_x="0 : 141.39076 : 1" inkscape:vp_y="0 : 1000 : 0" inkscape:vp_z="485.21872 : 141.39076 : 1" inkscape:persp3d-origin="242.60936 : 94.260508 : 1" id="perspective72" />
    <marker refX="0" refY="0" orient="auto" id="Arrow1Send" style="overflow:visible">
      <path d="M 0,0 5,-5 -12.5,0 5,5 0,0 z" transform="matrix(-0.2,0,0,-0.2,-1.2,0)" id="path3833" style="fill-rule:evenodd;stroke:#000000;stroke-width:1pt;marker-start:none" />
    </marker>
    <marker refX="0" refY="0" orient="auto" id="Arrow1Mend" style="overflow:visible">
      <path d="M 0,0 5,-5 -12.5,0 5,5 0,0 z" transform="matrix(-0.4,0,0,-0.4,-4,0)" id="path3827" style="fill-rule:evenodd;stroke:#000000;stroke-width:1pt;marker-start:none" />
    </marker>
    <marker refX="0" refY="0" orient="auto" id="Arrow1Mendb" style="overflow:visible">
      <path d="M 0,0 5,-5 -12.5,0 5,5 0,0 z" transform="matrix(-0.4,0,0,-0.4,-4,0)" id="path5298" style="fill:#0000ff;fill-rule:evenodd;stroke:#0000ff;stroke-width:1pt;marker-start:none" />
    </marker>
    <marker refX="0" refY="0" orient="auto" id="Arrow1Mends" style="overflow:visible">
      <path d="M 0,0 5,-5 -12.5,0 5,5 0,0 z" transform="matrix(-0.4,0,0,-0.4,-4,0)" id="path5301" style="fill:#0000ff;fill-rule:evenodd;stroke:#0000ff;stroke-width:1pt;marker-start:none" />
    </marker>
    <marker refX="0" refY="0" orient="auto" id="Arrow1Mendk" style="overflow:visible">
      <path d="M 0,0 5,-5 -12.5,0 5,5 0,0 z" transform="matrix(-0.4,0,0,-0.4,-4,0)" id="path5304" style="fill:#0000ff;fill-rule:evenodd;stroke:#0000ff;stroke-width:1pt;marker-start:none" />
    </marker>
    <marker refX="0" refY="0" orient="auto" id="Arrow1Mendw" style="overflow:visible">
      <path d="M 0,0 5,-5 -12.5,0 5,5 0,0 z" transform="matrix(-0.4,0,0,-0.4,-4,0)" id="path5307" style="fill:#ff0000;fill-rule:evenodd;stroke:#ff0000;stroke-width:1pt;marker-start:none" />
    </marker>
    <marker refX="0" refY="0" orient="auto" id="Arrow1MendS" style="overflow:visible">
      <path d="M 0,0 5,-5 -12.5,0 5,5 0,0 z" transform="matrix(-0.4,0,0,-0.4,-4,0)" id="path5310" style="fill:#0000ff;fill-rule:evenodd;stroke:#0000ff;stroke-width:1pt;marker-start:none" />
    </marker>
    <marker refX="0" refY="0" orient="auto" id="Arrow1Mendj" style="overflow:visible">
      <path d="M 0,0 5,-5 -12.5,0 5,5 0,0 z" transform="matrix(-0.4,0,0,-0.4,-4,0)" id="path5313" style="fill:#0000ff;fill-rule:evenodd;stroke:#0000ff;stroke-width:1pt;marker-start:none" />
    </marker>
    <marker refX="0" refY="0" orient="auto" id="Arrow1MendE" style="overflow:visible">
      <path d="M 0,0 5,-5 -12.5,0 5,5 0,0 z" transform="matrix(-0.4,0,0,-0.4,-4,0)" id="path5316" style="fill:#ff0000;fill-rule:evenodd;stroke:#ff0000;stroke-width:1pt;marker-start:none" />
    </marker>
    <marker refX="0" refY="0" orient="auto" id="Arrow1Mendx" style="overflow:visible">
      <path d="M 0,0 5,-5 -12.5,0 5,5 0,0 z" transform="matrix(-0.4,0,0,-0.4,-4,0)" id="path5319" style="fill:#ff0000;fill-rule:evenodd;stroke:#ff0000;stroke-width:1pt;marker-start:none" />
    </marker>
    <marker refX="0" refY="0" orient="auto" id="Arrow1MendU" style="overflow:visible">
      <path d="M 0,0 5,-5 -12.5,0 5,5 0,0 z" transform="matrix(-0.4,0,0,-0.4,-4,0)" id="path5322" style="fill:#0000ff;fill-rule:evenodd;stroke:#0000ff;stroke-width:1pt;marker-start:none" />
    </marker>
  </defs>
  <path style="fill:#ffffff;fill-opacity:1;stroke:#000000;stroke-width:3;stroke-linecap:butt;stroke-linejoin:round;stroke-miterlimit:4;stroke-opacity:1;stroke-dashoffset:0" id="rect2832-06" d="m 349.71876,156.81567 127.99997,0 c 3.324,0 6,2.676 6,6 l 0,25.85716 c 0,3.324 -2.676,6 -6,6 l -127.99997,0 c -3.324,0 -6,-2.676 -6,-6 l 0,-25.85716 c 0,-3.324 2.676,-6 6,-6 z" />
  <path style="fill:none;stroke:#ff0000;stroke-width:2;stroke-linecap:butt;stroke-linejoin:miter;stroke-miterlimit:4;stroke-opacity:1;stroke-dasharray:2, 4;stroke-dashoffset:0;marker-end:url(#Arrow1Mendw)" id="path3688" d="m 236.57587,175.74425 107.14816,0" />
  <path style="fill:none;stroke:#ff0000;stroke-width:2;stroke-linecap:butt;stroke-linejoin:miter;stroke-miterlimit:4;stroke-opacity:1;stroke-dasharray:2, 4;stroke-dashoffset:0;marker-end:url(#Arrow1MendE)" id="path3686" d="M 236.57588,272.35144 378.99959,194.6788" />
  <path style="fill:none;stroke:#ff0000;stroke-width:2;stroke-linecap:butt;stroke-linejoin:miter;stroke-miterlimit:4;stroke-opacity:1;stroke-dasharray:2, 4;stroke-dashoffset:0;marker-end:url(#Arrow1Mendx)" id="path3690" d="M 236.57589,79.137075 379.00215,156.8111" />
  <g id="g3646" transform="translate(23.718771,-231.43939)">
    <path style="fill:#ffffff;fill-opacity:1;stroke:#000000;stroke-width:3;stroke-linecap:butt;stroke-linejoin:round;stroke-miterlimit:4;stroke-opacity:1;stroke-dashoffset:0" id="rect2832" d="m 78.85714,291.64789 127.99997,0 c 3.324,0 6,2.676 6,6 l 0,25.85715 c 0,3.324 -2.676,6 -6,6 l -127.99997,0 c -3.324,0 -6,-2.676 -6,-6 l 0,-25.85715 c 0,-3.324 2.676,-6 6,-6 z" />
    <text sodipodi:linespacing="125%" style="font-size:16px;font-style:normal;font-variant:normal;font-weight:normal;font-stretch:normal;text-align:start;line-height:125%;writing-mode:lr-tb;text-anchor:start;fill:#000000;fill-opacity:1;stroke:none;font-family:Arial;-inkscape-font-specification:Arial" xml:space="preserve" id="text2816" y="316.20929" x="119.65791"><tspan id="tspan2818" y="316.20929" x="119.65791">Halted</tspan></text>
  </g>
  <g id="g3651" transform="translate(75.861611,-209.47506)">
    <path style="fill:#ffffff;fill-opacity:1;stroke:#000000;stroke-width:3;stroke-linecap:butt;stroke-linejoin:round;stroke-miterlimit:4;stroke-opacity:1;stroke-dashoffset:0" id="rect2832-9" d="m 26.7143,366.29074 127.99997,0 c 3.324,0 6,2.676 6,6 l 0,25.85716 c 0,3.324 -2.676,6 -6,6 l -127.99997,0 c -3.324,0 -6,-2.676 -6,-6 l 0,-25.85716 c 0,-3.324 2.676,-6 6,-6 z" />
    <text sodipodi:linespacing="125%" style="font-size:16px;font-style:normal;font-variant:normal;font-weight:normal;font-stretch:normal;text-align:start;line-height:125%;writing-mode:lr-tb;text-anchor:start;fill:#000000;fill-opacity:1;stroke:none;font-family:Arial;-inkscape-font-specification:Arial" xml:space="preserve" id="text2820" y="389.35995" x="51.726006"><tspan id="tspan2822" y="389.35995" x="51.726006">Configured</tspan></text>
  </g>
  <g id="g3656" transform="translate(133.71875,-230.72503)">
    <path style="fill:#ffffff;fill-opacity:1;stroke:#000000;stroke-width:3;stroke-linecap:butt;stroke-linejoin:round;stroke-miterlimit:4;stroke-opacity:1;stroke-dashoffset:0" id="rect2832-0" d="m -31.142841,484.14789 127.999969,0 c 3.324002,0 6.000002,2.676 6.000002,6 l 0,25.85715 c 0,3.324 -2.676,6 -6.000002,6 l -127.999969,0 c -3.324,0 -6,-2.676 -6,-6 l 0,-25.85715 c 0,-3.324 2.676,-6 6,-6 z" />
    <text sodipodi:linespacing="125%" style="font-size:16px;font-style:normal;font-variant:normal;font-weight:normal;font-stretch:normal;text-align:start;line-height:125%;writing-mode:lr-tb;text-anchor:start;fill:#000000;fill-opacity:1;stroke:none;font-family:Arial;-inkscape-font-specification:Arial" xml:space="preserve" id="text2824" y="508.70929" x="3.4157372"><tspan id="tspan2826" y="508.70929" x="3.4157372">Enabled</tspan></text>
  </g>
  <g style="font-size:16px;font-style:normal;font-variant:normal;font-weight:normal;font-stretch:normal;text-align:start;line-height:125%;writing-mode:lr-tb;text-anchor:start;fill:#000000;fill-opacity:1;stroke:none;font-family:Arial;-inkscape-font-specification:Arial" id="text2828" transform="translate(75.147324,-216.61792)">
    <path id="path4660" d="m 317.99719,397.995 0,-11.45313 7.72656,0 0,1.35156 -6.21093,0 0,3.54688 5.375,0 0,1.35156 -5.375,0 0,5.20313 -1.51563,0" />
    <path id="path4662" d="m 332.93469,396.97156 c -0.52084,0.44271 -1.02344,0.75521 -1.50781,0.9375 -0.47917,0.18229 -0.9948,0.27343 -1.54688,0.27344 -0.91146,-1e-5 -1.61198,-0.22136 -2.10156,-0.66407 -0.48958,-0.44791 -0.73437,-1.01823 -0.73437,-1.71093 0,-0.40625 0.0911,-0.77604 0.27343,-1.10938 0.1875,-0.33854 0.42969,-0.60937 0.72657,-0.8125 0.30208,-0.20312 0.64062,-0.35677 1.01562,-0.46094 0.27604,-0.0729 0.69271,-0.14322 1.25,-0.21093 1.13541,-0.13542 1.97135,-0.29687 2.50781,-0.48438 0.005,-0.1927 0.008,-0.3151 0.008,-0.36719 -10e-6,-0.57291 -0.13282,-0.97655 -0.39844,-1.21093 -0.35938,-0.31771 -0.89323,-0.47656 -1.60156,-0.47657 -0.66146,10e-6 -1.15105,0.1172 -1.46875,0.35157 -0.31251,0.22917 -0.54428,0.63802 -0.69532,1.22656 l -1.375,-0.1875 c 0.125,-0.58854 0.33073,-1.0625 0.61719,-1.42188 0.28646,-0.36457 0.70052,-0.64322 1.24219,-0.83593 0.54166,-0.19791 1.16927,-0.29687 1.88281,-0.29688 0.70833,10e-6 1.28385,0.0833 1.72656,0.25 0.44271,0.16667 0.76823,0.37761 0.97657,0.63281 0.20832,0.25001 0.35416,0.56772 0.4375,0.95313 0.0469,0.23959 0.0703,0.67188 0.0703,1.29687 l 0,1.875 c -1e-5,1.3073 0.0286,2.13542 0.0859,2.48438 0.0625,0.34375 0.18228,0.67448 0.35937,0.99219 l -1.46875,0 c -0.14584,-0.29167 -0.23959,-0.63282 -0.28125,-1.02344 m -0.11719,-3.14063 c -0.51042,0.20834 -1.27604,0.38542 -2.29687,0.53125 -0.57813,0.0833 -0.98698,0.17709 -1.22656,0.28125 -0.23959,0.10417 -0.42448,0.25782 -0.55469,0.46094 -0.13021,0.19792 -0.19531,0.41927 -0.19531,0.66406 0,0.375 0.14062,0.6875 0.42187,0.9375 0.28646,0.25 0.70312,0.375 1.25,0.375 0.54166,0 1.02344,-0.11718 1.44531,-0.35156 0.42187,-0.23958 0.73177,-0.5651 0.92969,-0.97656 0.15104,-0.31771 0.22656,-0.78646 0.22656,-1.40625 l 0,-0.51563" />
    <path id="path4664" d="m 336.43469,388.15906 0,-1.61719 1.40625,0 0,1.61719 -1.40625,0 m 0,9.83594 0,-8.29688 1.40625,0 0,8.29688 -1.40625,0" />
    <path id="path4666" d="m 339.95813,397.995 0,-11.45313 1.40625,0 0,11.45313 -1.40625,0" />
    <path id="path4668" d="m 349.23157,395.32312 1.45312,0.17969 c -0.22917,0.84896 -0.65365,1.50781 -1.27344,1.97656 -0.61979,0.46875 -1.41146,0.70312 -2.375,0.70313 -1.21354,-1e-5 -2.17708,-0.3724 -2.89062,-1.11719 -0.70833,-0.75 -1.0625,-1.79948 -1.0625,-3.14844 0,-1.39583 0.35937,-2.47916 1.07812,-3.25 0.71875,-0.77083 1.65104,-1.15624 2.79688,-1.15625 1.10937,10e-6 2.01562,0.37761 2.71875,1.13281 0.70312,0.75522 1.05468,1.81772 1.05469,3.1875 -10e-6,0.0833 -0.003,0.20834 -0.008,0.375 l -6.1875,0 c 0.0521,0.91146 0.3099,1.60938 0.77344,2.09375 0.46354,0.48438 1.04167,0.72657 1.73438,0.72657 0.51562,0 0.95572,-0.13542 1.32031,-0.40625 0.36458,-0.27084 0.65364,-0.70313 0.86719,-1.29688 m -4.61719,-2.27344 4.63281,0 c -0.0625,-0.69791 -0.23959,-1.22135 -0.53125,-1.57031 -0.44792,-0.54166 -1.02865,-0.81249 -1.74219,-0.8125 -0.64583,10e-6 -1.1901,0.21615 -1.63281,0.64844 -0.4375,0.4323 -0.67969,1.01042 -0.72656,1.73437" />
    <path id="path4670" d="m 357.84094,397.995 0,-1.04688 c -0.52605,0.82292 -1.29948,1.23437 -2.32031,1.23438 -0.66146,-1e-5 -1.27084,-0.1823 -1.82813,-0.54688 -0.55208,-0.36458 -0.98177,-0.87239 -1.28906,-1.52344 -0.30208,-0.65624 -0.45312,-1.40885 -0.45312,-2.25781 0,-0.82812 0.13802,-1.57812 0.41406,-2.25 0.27604,-0.67708 0.6901,-1.1953 1.24219,-1.55469 0.55208,-0.35936 1.16926,-0.53905 1.85156,-0.53906 0.5,10e-6 0.94531,0.10678 1.33594,0.32031 0.39062,0.20834 0.70832,0.48178 0.95312,0.82032 l 0,-4.10938 1.39844,0 0,11.45313 -1.30469,0 m -4.44531,-4.14063 c 0,1.0625 0.22396,1.85677 0.67187,2.38281 0.44792,0.52605 0.97656,0.78907 1.58594,0.78907 0.61458,0 1.13541,-0.25 1.5625,-0.75 0.43229,-0.50521 0.64843,-1.27344 0.64844,-2.30469 -10e-6,-1.13541 -0.21876,-1.96875 -0.65625,-2.5 -0.43751,-0.53125 -0.97657,-0.79687 -1.61719,-0.79688 -0.625,10e-6 -1.14844,0.25522 -1.57031,0.76563 -0.41667,0.51042 -0.625,1.31511 -0.625,2.41406" />
  </g>
  <path style="fill:none;stroke:#0000ff;stroke-width:2;stroke-linecap:butt;stroke-linejoin:miter;stroke-miterlimit:4;stroke-opacity:1;stroke-dasharray:none;marker-end:url(#Arrow1MendU)" id="path3692" d="M 413.71875,156.81568 C 357.38151,36.602915 166.5759,-46.662575 166.5759,60.208505" />
  <path style="fill:none;stroke:#0000ff;stroke-width:2;stroke-linecap:butt;stroke-linejoin:miter;stroke-miterlimit:4;stroke-opacity:1;stroke-dasharray:none;marker-end:url(#Arrow1Mendj)" id="path3694" d="m 96.575911,272.35144 c -77.248612,-52.45557 -90.60409,-193.214365 0,-193.214365" />
  <path style="fill:none;stroke:#0000ff;stroke-width:2;stroke-linecap:butt;stroke-linejoin:miter;stroke-miterlimit:4;stroke-opacity:1;stroke-dasharray:none;marker-end:url(#Arrow1MendS)" id="path3682" d="m 193.00447,98.065655 -1e-5,58.750025" />
  <path style="fill:none;stroke:#0000ff;stroke-width:2;stroke-linecap:butt;stroke-linejoin:miter;stroke-miterlimit:4;stroke-opacity:1;stroke-dasharray:none;marker-end:url(#Arrow1Mendb)" id="path3682-9" d="m 140.14731,156.81568 1e-5,-58.750025" />
  <path style="fill:none;stroke:#0000ff;stroke-width:2;stroke-linecap:butt;stroke-linejoin:miter;stroke-miterlimit:4;stroke-opacity:1;stroke-dasharray:none;marker-end:url(#Arrow1Mends)" id="path3682-0" d="m 193.00447,194.67283 -1e-5,58.75003" />
  <path style="fill:none;stroke:#0000ff;stroke-width:2;stroke-linecap:butt;stroke-linejoin:miter;stroke-miterlimit:4;stroke-opacity:1;stroke-dasharray:none;marker-end:url(#Arrow1Mendk)" id="path3682-9-4" d="m 140.14731,253.42286 1e-5,-58.75003" />
  <text sodipodi:linespacing="125%" style="font-size:16px;font-style:normal;font-variant:normal;font-weight:normal;font-stretch:normal;text-align:start;line-height:125%;writing-mode:lr-tb;text-anchor:start;fill:#0000ff;fill-opacity:1;stroke:none;font-family:Arial;-inkscape-font-specification:Arial" xml:space="preserve" id="text5420" y="130.83128" x="199.43303"><tspan id="tspan5422" y="130.83128" x="199.43303">Configure</tspan></text>
  <text sodipodi:linespacing="125%" style="font-size:16px;font-style:normal;font-variant:normal;font-weight:normal;font-stretch:normal;text-align:start;line-height:125%;writing-mode:lr-tb;text-anchor:start;fill:#0000ff;fill-opacity:1;stroke:none;font-family:Arial;-inkscape-font-specification:Arial" xml:space="preserve" id="text5424" y="228.93063" x="198.96428"><tspan id="tspan5426" y="228.93063" x="198.96428">Enable</tspan></text>
  <text sodipodi:linespacing="125%" style="font-size:16px;font-style:normal;font-variant:normal;font-weight:normal;font-stretch:normal;text-align:start;line-height:125%;writing-mode:lr-tb;text-anchor:start;fill:#0000ff;fill-opacity:1;stroke:none;font-family:Arial;-inkscape-font-specification:Arial" xml:space="preserve" id="text5428" y="228.93063" x="80.058037"><tspan id="tspan5430" y="228.93063" x="80.058037">Disable</tspan></text>
  <text sodipodi:linespacing="125%" style="font-size:16px;font-style:normal;font-variant:normal;font-weight:normal;font-stretch:normal;text-align:start;line-height:125%;writing-mode:lr-tb;text-anchor:start;fill:#0000ff;fill-opacity:1;stroke:none;font-family:Arial;-inkscape-font-specification:Arial" xml:space="preserve" id="text5432" y="132.32347" x="104.43304"><tspan id="tspan5434" y="132.32347" x="104.43304">Halt</tspan></text>
  <text sodipodi:linespacing="125%" style="font-size:16px;font-style:normal;font-variant:normal;font-weight:normal;font-stretch:normal;text-align:start;line-height:125%;writing-mode:lr-tb;text-anchor:start;fill:#0000ff;fill-opacity:1;stroke:none;font-family:Arial;-inkscape-font-specification:Arial" xml:space="preserve" id="text5436" y="153.78003" x="-1.2812499"><tspan id="tspan5438" y="153.78003" x="-1.2812499">Halt</tspan></text>
  <text sodipodi:linespacing="125%" style="font-size:16px;font-style:normal;font-variant:normal;font-weight:normal;font-stretch:normal;text-align:start;line-height:125%;writing-mode:lr-tb;text-anchor:start;fill:#0000ff;fill-opacity:1;stroke:none;font-family:Arial;-inkscape-font-specification:Arial" xml:space="preserve" id="text5440" y="46.63718" x="320.14731"><tspan id="tspan5442" y="46.63718" x="320.14731">Reset</tspan></text>
</svg>
